<svg width="24" height="14" viewBox="0 0 24 14" fill="none" xmlns="http://www.w3.org/2000/svg">
<path d="M0 6.99999C0 7.2652 0.105357 7.51956 0.292893 7.70709C0.48043 7.89463 0.734784 7.99999 1 7.99999L20.586 7.99999L16.294 12.292C16.1118 12.4806 16.011 12.7332 16.0133 12.9954C16.0156 13.2576 16.1208 13.5084 16.3062 13.6938C16.4916 13.8792 16.7424 13.9844 17.0046 13.9867C17.2668 13.9889 17.5194 13.8881 17.708 13.706L23.708 7.70599C23.8005 7.61399 23.874 7.50461 23.9241 7.38414C23.9742 7.26366 24 7.13447 24 7.00399V6.99999C24 6.86999 23.974 6.73999 23.922 6.61799C23.8722 6.49675 23.7987 6.38662 23.706 6.29399L17.706 0.293987C17.5174 0.111829 17.2648 0.0110345 17.0026 0.0133129C16.7404 0.0155914 16.4896 0.12076 16.3042 0.306168C16.1188 0.491576 16.0136 0.742389 16.0113 1.00459C16.009 1.26678 16.1098 1.51939 16.292 1.70799L20.586 5.99999L1 5.99999C0.734784 5.99999 0.48043 6.10534 0.292893 6.29288C0.105357 6.48042 0 6.73477 0 6.99999Z" fill="url(#paint0_radial_15510_2853)"/>
<defs>
<radialGradient id="paint0_radial_15510_2853" cx="0" cy="0" r="1" gradientUnits="userSpaceOnUse" gradientTransform="translate(5.4043e-07 0.402972) rotate(29.5094) scale(27.5775 43.9393)">
<stop stop-color="white"/>
<stop offset="1" stop-color="white"/>
</radialGradient>
</defs>
</svg>
